<mxfile host="Electron" agent="Mozilla/5.0 (Windows NT 10.0; Win64; x64) AppleWebKit/537.36 (KHTML, like Gecko) draw.io/26.2.15 Chrome/134.0.6998.205 Electron/35.2.1 Safari/537.36" version="26.2.15">
  <diagram name="Seite-1" id="efNwkudL7NHi1EsVw8Rv">
    <mxGraphModel dx="868" dy="608" grid="1" gridSize="10" guides="1" tooltips="1" connect="1" arrows="1" fold="1" page="1" pageScale="1" pageWidth="827" pageHeight="1169" math="0" shadow="0">
      <root>
        <mxCell id="0" />
        <mxCell id="1" parent="0" />
        <mxCell id="7ieUOjTxpt2gDqh3xGr3-6" value="S1" style="shape=mxgraph.cisco.switches.atm_fast_gigabit_etherswitch;sketch=0;html=1;pointerEvents=1;dashed=0;fillColor=#036897;strokeColor=#ffffff;strokeWidth=2;verticalLabelPosition=bottom;verticalAlign=top;align=center;outlineConnect=0;" parent="1" vertex="1">
          <mxGeometry x="280" y="320" width="40" height="40" as="geometry" />
        </mxCell>
        <mxCell id="7ieUOjTxpt2gDqh3xGr3-8" value="S2" style="shape=mxgraph.cisco.switches.atm_fast_gigabit_etherswitch;sketch=0;html=1;pointerEvents=1;dashed=0;fillColor=#036897;strokeColor=#ffffff;strokeWidth=2;verticalLabelPosition=bottom;verticalAlign=top;align=center;outlineConnect=0;" parent="1" vertex="1">
          <mxGeometry x="480" y="320" width="40" height="40" as="geometry" />
        </mxCell>
        <mxCell id="7ieUOjTxpt2gDqh3xGr3-13" value="A" style="shape=mxgraph.cisco.computers_and_peripherals.pc;sketch=0;html=1;pointerEvents=1;dashed=0;fillColor=#036897;strokeColor=#ffffff;strokeWidth=2;verticalLabelPosition=bottom;verticalAlign=top;align=center;outlineConnect=0;" parent="1" vertex="1">
          <mxGeometry x="160" y="320" width="50" height="40" as="geometry" />
        </mxCell>
        <mxCell id="7ieUOjTxpt2gDqh3xGr3-14" value="B" style="shape=mxgraph.cisco.computers_and_peripherals.pc;sketch=0;html=1;pointerEvents=1;dashed=0;fillColor=#036897;strokeColor=#ffffff;strokeWidth=2;verticalLabelPosition=bottom;verticalAlign=top;align=center;outlineConnect=0;" parent="1" vertex="1">
          <mxGeometry x="590" y="320" width="50" height="40" as="geometry" />
        </mxCell>
        <mxCell id="7ieUOjTxpt2gDqh3xGr3-15" value="" style="endArrow=none;html=1;rounded=0;exitX=0.83;exitY=0.5;exitDx=0;exitDy=0;exitPerimeter=0;entryX=0;entryY=0.5;entryDx=0;entryDy=0;entryPerimeter=0;" parent="1" source="7ieUOjTxpt2gDqh3xGr3-13" target="7ieUOjTxpt2gDqh3xGr3-6" edge="1">
          <mxGeometry width="50" height="50" relative="1" as="geometry">
            <mxPoint x="390" y="400" as="sourcePoint" />
            <mxPoint x="440" y="350" as="targetPoint" />
          </mxGeometry>
        </mxCell>
        <mxCell id="7ieUOjTxpt2gDqh3xGr3-16" value="" style="endArrow=none;html=1;rounded=0;exitX=0.83;exitY=0.5;exitDx=0;exitDy=0;exitPerimeter=0;entryX=0;entryY=0.5;entryDx=0;entryDy=0;entryPerimeter=0;" parent="1" edge="1">
          <mxGeometry width="50" height="50" relative="1" as="geometry">
            <mxPoint x="520" y="339.5" as="sourcePoint" />
            <mxPoint x="598" y="339.5" as="targetPoint" />
          </mxGeometry>
        </mxCell>
        <mxCell id="7ieUOjTxpt2gDqh3xGr3-19" value="" style="endArrow=none;html=1;rounded=0;exitX=1;exitY=0.5;exitDx=0;exitDy=0;exitPerimeter=0;entryX=0;entryY=0.5;entryDx=0;entryDy=0;entryPerimeter=0;" parent="1" source="7ieUOjTxpt2gDqh3xGr3-6" target="7ieUOjTxpt2gDqh3xGr3-8" edge="1">
          <mxGeometry width="50" height="50" relative="1" as="geometry">
            <mxPoint x="320" y="340" as="sourcePoint" />
            <mxPoint x="383.5" y="340" as="targetPoint" />
          </mxGeometry>
        </mxCell>
        <mxCell id="7ieUOjTxpt2gDqh3xGr3-23" value="SPOF" style="edgeLabel;html=1;align=center;verticalAlign=middle;resizable=0;points=[];" parent="7ieUOjTxpt2gDqh3xGr3-19" vertex="1" connectable="0">
          <mxGeometry x="-0.005" relative="1" as="geometry">
            <mxPoint as="offset" />
          </mxGeometry>
        </mxCell>
        <mxCell id="JSLbwz5xQ27bn2Q9hMCF-4" value="1" style="shape=singleArrow;whiteSpace=wrap;html=1;arrowWidth=0.515383324256311;arrowSize=0.4184617262620202;fillColor=#f0a30a;fontColor=#000000;strokeColor=#BD7000;shadow=0;" vertex="1" parent="1">
          <mxGeometry x="220" y="310" width="40" height="20" as="geometry" />
        </mxCell>
        <mxCell id="JSLbwz5xQ27bn2Q9hMCF-5" value="2" style="shape=singleArrow;whiteSpace=wrap;html=1;arrowWidth=0.515383324256311;arrowSize=0.4184617262620202;fillColor=#f0a30a;fontColor=#000000;strokeColor=#BD7000;shadow=0;" vertex="1" parent="1">
          <mxGeometry x="380" y="310" width="40" height="20" as="geometry" />
        </mxCell>
        <mxCell id="JSLbwz5xQ27bn2Q9hMCF-6" value="3" style="shape=singleArrow;whiteSpace=wrap;html=1;arrowWidth=0.515383324256311;arrowSize=0.4184617262620202;fillColor=#f0a30a;fontColor=#000000;strokeColor=#BD7000;shadow=0;" vertex="1" parent="1">
          <mxGeometry x="540" y="310" width="40" height="20" as="geometry" />
        </mxCell>
      </root>
    </mxGraphModel>
  </diagram>
</mxfile>
